<svg width="140" height="140" viewBox="0 0 140 140" xmlns="http://www.w3.org/2000/svg"><title>robot-140</title><g transform="translate(13)" fill="none" fill-rule="evenodd"><ellipse fill="#47403D" cx="57" cy="67" rx="50" ry="55"/><path fill="#B6BABA" d="M45.29 98.57h25.618v23.922h-25.62z"/><circle fill="#B6BABA" cx="20" cy="63" r="17"/><circle fill="#B6BABA" cx="94" cy="63" r="17"/><path d="M94 50.724v28.943C94 92.553 83.553 103 70.667 103H43.333C30.447 103 20 92.553 20 79.667V50.724C20 26.702 36.565 7.228 57 7.228s37 19.474 37 43.496z" fill="#D4D4D4"/><circle fill="#0F0F10" cx="40" cy="55" r="5"/><circle fill="#0F0F10" cx="74" cy="55" r="5"/><path d="M57 120v20H0c4.852-5.432 15.127-10.547 30.824-15.346C14.43 110.93.528 87.08.528 59.248.528 16.84 31.706 0 57 0v120V16c-17.79 0-47 14-47 51 0 36.992 46.98 52.993 47 53V0c25.294 0 56.472 16.84 56.472 59.248 0 27.84-13.91 51.696-30.31 65.418 15.7 4.805 25.98 9.916 30.838 15.334H57v-20zm0-104v104s47-16 47-53-29.21-51-47-51z" fill="#E2007A"/><path d="M43 140c1.29-5.886 2.777-11.11 5-16l-4-2c-2.467 5.428-4.63 11.468-6 18h5z" fill="#FEFDFC" fill-rule="nonzero"/><circle fill="#47403D" cx="46" cy="123" r="4"/><path d="M71 140c-1.29-5.886-2.777-11.11-5-16l4-2c2.467 5.428 4.63 11.468 6 18h-5z" fill="#FEFDFC" fill-rule="nonzero"/><circle fill="#47403D" cx="68" cy="123" r="4"/><path d="M59 122v18h-4v-18c0-2.667 4-2.667 4 0z" fill="#47403D" fill-rule="nonzero"/><path d="M37.044 73h39.912c-.06.68-.18 1.348-.356 2H37.4c-.176-.652-.297-1.32-.356-2zm1.62 5h36.672c-.406.696-.88 1.364-1.415 2H40.08c-.537-.636-1.01-1.304-1.416-2zm4.738 5h27.196c-1.098.763-2.31 1.435-3.614 2H47.016c-1.305-.565-2.516-1.237-3.614-2z" fill="#8C9292"/><g transform="translate(11)"><path d="M9.23 46.002L12 34 9 24l3-10-4-8.947H3L7 14 4.027 24 7 34 4.09 46.72C5.647 46.25 7.294 46 9 46c.077 0 .154 0 .23.002z" fill="#8C9292" fill-rule="nonzero"/><circle fill="#B6BABA" cx="6" cy="6" r="6"/></g></g></svg>